<?xml version="1.0" encoding="UTF-8" standalone="no"?>
<!-- Created with Inkscape (http://www.inkscape.org/) -->

<svg
   xmlns:dc="http://purl.org/dc/elements/1.1/"
   xmlns:cc="http://creativecommons.org/ns#"
   xmlns:rdf="http://www.w3.org/1999/02/22-rdf-syntax-ns#"
   xmlns:svg="http://www.w3.org/2000/svg"
   xmlns="http://www.w3.org/2000/svg"
   xmlns:xlink="http://www.w3.org/1999/xlink"
   xmlns:sodipodi="http://sodipodi.sourceforge.net/DTD/sodipodi-0.dtd"
   xmlns:inkscape="http://www.inkscape.org/namespaces/inkscape"
   width="48px"
   height="48px"
   id="svg2816"
   version="1.1"
   inkscape:version="0.47pre4 r22446"
   sodipodi:docname="menu_online.svg"
   inkscape:export-filename="/home/lukacu/workspace/webstrips-android/res/drawable/menu_online.png"
   inkscape:export-xdpi="90"
   inkscape:export-ydpi="90">
  <sodipodi:namedview
     id="base"
     pagecolor="#c4c4c4"
     bordercolor="#666666"
     borderopacity="1.0"
     inkscape:pageopacity="0"
     inkscape:pageshadow="2"
     inkscape:zoom="4.9497475"
     inkscape:cx="46.306803"
     inkscape:cy="37.314372"
     inkscape:current-layer="layer1"
     showgrid="true"
     inkscape:grid-bbox="true"
     inkscape:document-units="px"
     showguides="true"
     inkscape:guide-bbox="true"
     inkscape:window-width="1920"
     inkscape:window-height="1125"
     inkscape:window-x="0"
     inkscape:window-y="25"
     inkscape:window-maximized="1">
    <sodipodi:guide
       id="guide2826"
       position="6,27.571429"
       orientation="1,0" />
    <sodipodi:guide
       id="guide2828"
       position="42,19.571429"
       orientation="1,0" />
    <sodipodi:guide
       id="guide2830"
       position="21.857143,42"
       orientation="0,1" />
    <sodipodi:guide
       id="guide2832"
       position="22.142857,6"
       orientation="0,1" />
  </sodipodi:namedview>
  <defs
     id="defs2818">
    <linearGradient
       id="linearGradient3608">
      <stop
         id="stop3610"
         offset="0"
         style="stop-color:#a3a3a3;stop-opacity:1;" />
      <stop
         id="stop3612"
         offset="1"
         style="stop-color:#787878;stop-opacity:1;" />
    </linearGradient>
    <inkscape:perspective
       id="perspective2824"
       inkscape:persp3d-origin="24 : 16 : 1"
       inkscape:vp_z="48 : 24 : 1"
       inkscape:vp_y="0 : 1000 : 0"
       inkscape:vp_x="0 : 24 : 1"
       sodipodi:type="inkscape:persp3d" />
    <linearGradient
       gradientUnits="userSpaceOnUse"
       y2="23.857143"
       x2="38.857143"
       y1="23.857143"
       x1="8.8571434"
       id="linearGradient3614"
       xlink:href="#linearGradient3608"
       inkscape:collect="always" />
    <linearGradient
       y2="34.690475"
       x2="23.857143"
       y1="12.904762"
       x1="23.857143"
       gradientUnits="userSpaceOnUse"
       id="linearGradient3666"
       xlink:href="#linearGradient3608"
       inkscape:collect="always"
       gradientTransform="matrix(-1.2,0,0,1.2,52.628572,-4.6285721)" />
    <filter
       id="filter5839"
       inkscape:label="Inner Shadow"
       inkscape:menu="Shadows and Glows"
       inkscape:menu-tooltip="Adds a colorizable drop shadow inside"
       color-interpolation-filters="sRGB">
      <feGaussianBlur
         id="feGaussianBlur5841"
         stdDeviation="1"
         result="result8" />
      <feOffset
         id="feOffset5843"
         dx="0"
         dy="1"
         result="result11" />
      <feComposite
         id="feComposite5845"
         in2="result11"
         result="result6"
         in="SourceGraphic"
         operator="in" />
      <feFlood
         id="feFlood5847"
         result="result10"
         in="result6"
         flood-opacity="0.77852348993288589"
         flood-color="rgb(0,0,0)" />
      <feBlend
         id="feBlend5849"
         in2="result10"
         mode="normal"
         in="result6"
         result="result12" />
      <feComposite
         id="feComposite5851"
         in2="SourceGraphic"
         result="result2"
         operator="in" />
    </filter>
    <filter
       inkscape:collect="always"
       id="filter5877"
       x="-0.10116279"
       width="1.2023256"
       y="-0.10116279"
       height="1.2023256">
      <feGaussianBlur
         inkscape:collect="always"
         stdDeviation="1.5174419"
         id="feGaussianBlur5879" />
    </filter>
    <inkscape:perspective
       id="perspective6005"
       inkscape:persp3d-origin="0.5 : 0.33333333 : 1"
       inkscape:vp_z="1 : 0.5 : 1"
       inkscape:vp_y="0 : 1000 : 0"
       inkscape:vp_x="0 : 0.5 : 1"
       sodipodi:type="inkscape:persp3d" />
    <linearGradient
       inkscape:collect="always"
       xlink:href="#linearGradient4074"
       id="linearGradient4784"
       x1="8.9408789"
       y1="1017.0083"
       x2="27.53244"
       y2="1017.0083"
       gradientUnits="userSpaceOnUse"
       gradientTransform="matrix(1.2799099,0,0,1.2872845,0.18256279,-283.4993)" />
    <linearGradient
       id="linearGradient4074">
      <stop
         style="stop-color:#0049a0;stop-opacity:1;"
         offset="0"
         id="stop4076" />
      <stop
         style="stop-color:#001835;stop-opacity:1;"
         offset="1"
         id="stop4078" />
    </linearGradient>
    <linearGradient
       y2="1017.0083"
       x2="27.53244"
       y1="1017.0083"
       x1="8.9408789"
       gradientTransform="matrix(1.5181138,0,0,1.5268608,38.283872,-1587.6124)"
       gradientUnits="userSpaceOnUse"
       id="linearGradient6014"
       xlink:href="#linearGradient4074"
       inkscape:collect="always" />
    <linearGradient
       inkscape:collect="always"
       xlink:href="#linearGradient3608"
       id="linearGradient6062"
       gradientUnits="userSpaceOnUse"
       gradientTransform="matrix(-1.2,0,0,1.2,52.628572,-4.6285721)"
       x1="23.857143"
       y1="12.904762"
       x2="23.857143"
       y2="34.690475" />
  </defs>
  <metadata
     id="metadata2821">
    <rdf:RDF>
      <cc:Work
         rdf:about="">
        <dc:format>image/svg+xml</dc:format>
        <dc:type
           rdf:resource="http://purl.org/dc/dcmitype/StillImage" />
        <dc:title></dc:title>
      </cc:Work>
    </rdf:RDF>
  </metadata>
  <g
     inkscape:groupmode="layer"
     inkscape:label="Layer 1"
     id="layer1">
    <path
       id="path5871"
       d="M 24,6 C 14.058875,6 6,14.058875 6,24 6,33.941125 14.058875,42 24,42 33.941125,42 42,33.941125 42,24 42,14.058875 33.941125,6 24,6 z m -6.21875,7.34375 16.1875,10.5625 -16.1875,10.625 0,-21.1875 z"
       style="opacity:0.65294118;fill:#ffffff;fill-opacity:1;stroke:#ffffff;stroke-opacity:1;filter:url(#filter5877)"
       transform="matrix(-1,0,0,1,48,0)" />
    <path
       style="fill:url(#linearGradient6062);fill-opacity:1;stroke:none;filter:url(#filter5839)"
       d="M 24 6 C 14.058875 6 6 14.058875 6 24 C 6 33.941125 14.058875 42 24 42 C 33.941125 42 42 33.941125 42 24 C 42 14.058875 33.941125 6 24 6 z M 24 10.15625 C 27.153013 10.15625 30.054432 11.193147 32.40625 12.9375 L 31.5 12.75 L 30.78125 12.5 L 29.78125 12.75 L 29.125 13.1875 L 29.125 13.53125 L 28.125 14.21875 L 28.34375 15.1875 L 28.90625 14.75 L 29.28125 15.1875 L 29.71875 15.40625 L 30 14.6875 L 29.8125 14.28125 L 30 13.96875 L 30.5625 13.4375 L 30.84375 13.4375 L 30.5625 14.03125 L 30.5625 14.5625 C 30.80802 14.49489 31.061246 14.49958 31.3125 14.46875 L 30.625 14.9375 L 30.5625 15.21875 L 29.78125 15.90625 L 28.96875 15.71875 L 28.96875 15.21875 L 28.59375 15.5 L 28.75 15.90625 L 28.15625 15.90625 L 28 16.15625 L 27.84375 16.46875 L 27.4375 16.9375 L 26.71875 17.0625 L 27.15625 17.5 L 27.25 17.90625 L 26.71875 17.90625 L 26.03125 18.28125 L 26.03125 19.375 L 26.34375 19.375 L 26.65625 19.71875 L 27.3125 19.375 L 27.59375 18.71875 L 28.0625 18.40625 L 28.15625 18.1875 L 28.96875 17.96875 L 29.40625 18.46875 L 29.875 18.71875 L 29.625 19.25 L 30.03125 19.125 L 30.25 18.59375 L 29.71875 17.96875 L 29.90625 17.96875 L 30.46875 18.40625 L 30.5625 19.03125 L 31.03125 19.5625 L 31.15625 18.75 L 31.40625 18.65625 C 31.67044 18.932257 31.90249 19.251976 32.125 19.5625 L 32.90625 19.625 L 33.40625 19.9375 L 33.1875 20.25 L 32.6875 20.65625 L 32.03125 20.65625 L 31.125 20.34375 L 30.625 20.40625 L 30.28125 20.8125 L 29.28125 19.78125 L 28.59375 19.625 L 27.59375 19.75 L 26.65625 19.96875 C 26.146541 20.550062 25.669939 21.146388 25.1875 21.75 L 24.59375 23.15625 L 24.84375 23.46875 L 24.375 24.1875 L 24.90625 25.46875 C 25.360607 25.985538 25.827553 26.482738 26.28125 27 L 26.9375 26.4375 L 27.21875 26.78125 L 27.96875 26.3125 L 28.1875 26.59375 L 28.90625 26.59375 L 29.34375 27.0625 L 29.09375 27.875 L 29.59375 28.46875 L 29.53125 29.46875 L 29.9375 30.21875 L 29.65625 30.8125 C 29.6296 31.2599 29.625 31.708849 29.625 32.15625 C 29.843982 32.762589 30.043221 33.358141 30.25 33.96875 L 30.40625 34.96875 L 30.40625 35.4375 L 30.78125 35.4375 L 31.375 35.09375 L 32.0625 35.09375 L 33.09375 33.875 L 32.96875 33.46875 L 33.65625 32.90625 L 33.15625 32.3125 L 33.78125 31.78125 L 34.375 31.40625 L 34.65625 31.125 L 34.46875 30.4375 L 34.46875 28.75 L 34.9375 27.71875 L 35.53125 27.03125 L 36.1875 25.46875 L 36.1875 25.03125 C 35.86995 25.07158 35.560654 25.10247 35.25 25.125 L 35.875 24.5 L 36.78125 23.875 L 37.25 23.3125 L 37.25 22.71875 C 37.143048 22.515807 37.045192 22.327825 36.9375 22.125 L 36.5 22.59375 L 36.1875 22.25 L 35.6875 21.875 L 35.6875 21.09375 L 36.25 21.71875 L 36.875 21.625 C 37.154921 21.880725 37.44198 22.146429 37.6875 22.4375 L 37.9375 22.125 C 38.046573 22.832858 38.15625 23.54286 38.15625 24.28125 C 38.15625 32.092134 31.810884 38.4375 24 38.4375 C 21.136249 38.4375 18.479257 37.559164 16.25 36.09375 C 16.749469 36.41328 17.732835 36.934512 17.8125 36.875 C 17.91836 36.79434 18.03125 36.71875 18.03125 36.71875 L 17.90625 36.4375 L 18.3125 35.96875 L 18.5 35.5625 L 19.1875 35.3125 L 19.71875 33.96875 L 19.5625 33.625 L 19.9375 33.0625 L 20.71875 32.90625 L 21.15625 31.90625 L 21.0625 30.6875 L 21.6875 29.78125 L 21.8125 28.875 C 20.935247 28.437444 20.058211 27.981734 19.1875 27.53125 L 18.78125 26.6875 L 17.9375 26.5 L 17.53125 25.34375 L 16.4375 25.46875 L 15.53125 24.8125 L 14.59375 25.65625 L 14.59375 25.78125 C 14.302654 25.69704 13.915443 25.692916 13.65625 25.53125 L 13.46875 24.90625 L 13.46875 24.25 L 12.8125 24.3125 C 12.86602 23.886686 12.94613 23.457182 13 23.03125 L 12.625 23.03125 L 12.25 23.5 L 11.875 23.6875 L 11.34375 23.40625 L 11.28125 22.71875 L 11.375 22 L 12.1875 21.40625 L 12.8125 21.40625 L 12.90625 21 L 13.75 21.21875 L 14.3125 21.9375 L 14.40625 20.71875 L 15.4375 19.875 L 15.8125 18.9375 L 16.5625 18.625 L 17 18.03125 L 17.9375 17.875 L 18.4375 17.125 L 17 17.125 L 17.90625 16.71875 L 18.53125 16.71875 L 19.4375 16.40625 L 19.5625 16.03125 L 19.21875 15.71875 L 18.875 15.59375 L 18.96875 15.21875 L 18.6875 14.6875 L 18.0625 14.9375 L 18.15625 14.46875 L 17.40625 14.03125 L 16.8125 15.0625 L 16.90625 15.40625 L 16.28125 15.6875 L 15.90625 16.4375 L 15.78125 15.71875 L 14.75 15.3125 L 14.59375 14.75 L 15.90625 13.96875 L 16.53125 13.40625 L 16.5625 12.75 L 16.25 12.5625 L 16.125 12.53125 C 16.680432 12.158461 17.267583 11.82358 17.875 11.53125 L 17.84375 11.59375 L 18.53125 11.71875 L 18.8125 11.46875 L 19.34375 11.34375 C 19.709822 11.165003 20.08033 11.063821 20.46875 10.9375 L 20.3125 10.65625 C 21.488885 10.339166 22.723422 10.15625 24 10.15625 z M 16.53125 13.40625 L 16.34375 13.90625 L 16.90625 13.90625 L 17.15625 13.3125 C 17.3867 13.148461 17.609037 12.970489 17.84375 12.8125 L 18.40625 13 C 18.762329 13.243271 19.081128 13.475953 19.4375 13.71875 L 19.96875 13.21875 L 19.40625 13 L 19.125 12.4375 L 18.125 12.3125 L 18.0625 12 L 17.5625 12.15625 L 17.375 12.5625 L 17.09375 12 L 17 12.28125 L 17.03125 12.875 L 16.625 13.21875 L 16.53125 13.40625 z M 28 16.15625 L 27.625 15.8125 C 27.499367 15.476 27.375984 15.135359 27.21875 14.8125 L 26.875 14.8125 L 26.875 15.1875 L 27.09375 15.4375 L 27.09375 15.96875 L 26.96875 16.71875 L 27.59375 16.5625 L 28 16.15625 z M 24.0625 10.4375 L 22.4375 10.625 L 20.46875 11.15625 L 20.09375 11.53125 L 21.3125 12.375 L 21.3125 12.875 L 20.84375 13.34375 L 21.46875 14.65625 L 21.90625 14.375 L 22.4375 13.53125 C 23.263004 13.274576 24.027863 12.989966 24.8125 12.625 L 25.4375 10.96875 L 24.0625 10.4375 z M 15.65625 12.875 L 15.53125 13.1875 C 15.53125 13.1875 15.322535 13.22224 15.15625 13.25 C 15.318334 13.120016 15.488432 12.997878 15.65625 12.875 z M 32.65625 13.125 C 32.779603 13.220761 32.911201 13.30654 33.03125 13.40625 L 32.96875 13.46875 L 32.4375 14.09375 L 31.75 13.34375 L 32.4375 13.34375 L 32.65625 13.125 z M 25.46875 13.3125 L 25.0625 13.53125 L 24.84375 13.46875 L 24.8125 13.84375 L 25.1875 14.09375 L 25.8125 13.65625 L 25.46875 13.3125 z M 18.4375 13.4375 L 18.03125 13.71875 L 18.53125 14.09375 L 18.96875 14.09375 L 18.96875 13.65625 L 18.4375 13.4375 z M 26.65625 15.53125 L 26.28125 15.6875 L 26.375 16.34375 L 26.875 16.09375 L 26.65625 15.53125 z M 19.28125 16.65625 L 19.4375 17.5 L 19.78125 17 L 19.28125 16.65625 z M 33.25 21.40625 L 33.84375 22.0625 L 34.5625 23.625 L 35.03125 24.125 L 34.78125 24.65625 L 35.21875 25.125 C 35.032076 25.14042 34.848186 25.15625 34.65625 25.15625 C 34.315977 24.436755 34.040367 23.720863 33.78125 22.96875 L 33.34375 22.46875 L 33.0625 21.5625 L 33.25 21.40625 z M 9.90625 23.28125 C 10.018919 23.50532 10.375 24 10.375 24 L 11.5 24.65625 L 12.625 24.96875 L 13.09375 25.59375 L 13.84375 26.125 L 14.28125 26.0625 L 14.59375 26.21875 L 14.59375 26.3125 L 14.15625 27.46875 L 13.84375 27.96875 L 13.9375 28.1875 L 13.65625 29.09375 L 14.65625 30.875 L 15.625 31.71875 L 16.03125 32.34375 L 15.96875 33.625 L 16.28125 34.34375 L 15.96875 35.75 C 15.96365 35.767584 15.94828 35.80526 15.96875 35.875 C 15.973834 35.892226 16.044578 35.961944 16.09375 36 C 12.327802 33.454503 9.84375 29.163052 9.84375 24.28125 C 9.84375 23.941706 9.88272 23.614806 9.90625 23.28125 z "
       id="path2834" />
  </g>
</svg>
