<?xml version="1.0" encoding="UTF-8" standalone="no"?>
<!-- Created with Inkscape (http://www.inkscape.org/) -->

<svg
   xmlns:dc="http://purl.org/dc/elements/1.1/"
   xmlns:cc="http://creativecommons.org/ns#"
   xmlns:rdf="http://www.w3.org/1999/02/22-rdf-syntax-ns#"
   xmlns:svg="http://www.w3.org/2000/svg"
   xmlns="http://www.w3.org/2000/svg"
   xmlns:xlink="http://www.w3.org/1999/xlink"
   xmlns:sodipodi="http://sodipodi.sourceforge.net/DTD/sodipodi-0.dtd"
   xmlns:inkscape="http://www.inkscape.org/namespaces/inkscape"
   width="48px"
   height="48px"
   id="svg2816"
   version="1.1"
   inkscape:version="0.47pre4 r22446"
   sodipodi:docname="menu_list.svg"
   inkscape:export-filename="/home/lukacu/workspace/webstrips-android/res/drawable/menu_list.png"
   inkscape:export-xdpi="90"
   inkscape:export-ydpi="90">
  <sodipodi:namedview
     id="base"
     pagecolor="#c4c4c4"
     bordercolor="#666666"
     borderopacity="1.0"
     inkscape:pageopacity="0"
     inkscape:pageshadow="2"
     inkscape:zoom="6.5996633"
     inkscape:cx="24.127212"
     inkscape:cy="26.789202"
     inkscape:current-layer="layer1"
     showgrid="true"
     inkscape:grid-bbox="true"
     inkscape:document-units="px"
     showguides="true"
     inkscape:guide-bbox="true"
     inkscape:window-width="1920"
     inkscape:window-height="1125"
     inkscape:window-x="0"
     inkscape:window-y="25"
     inkscape:window-maximized="1">
    <sodipodi:guide
       id="guide2826"
       position="6,27.571429"
       orientation="1,0" />
    <sodipodi:guide
       id="guide2828"
       position="42,19.571429"
       orientation="1,0" />
    <sodipodi:guide
       id="guide2830"
       position="21.857143,42"
       orientation="0,1" />
    <sodipodi:guide
       id="guide2832"
       position="22.142857,6"
       orientation="0,1" />
  </sodipodi:namedview>
  <defs
     id="defs2818">
    <linearGradient
       id="linearGradient3608">
      <stop
         id="stop3610"
         offset="0"
         style="stop-color:#a3a3a3;stop-opacity:1;" />
      <stop
         id="stop3612"
         offset="1"
         style="stop-color:#787878;stop-opacity:1;" />
    </linearGradient>
    <inkscape:perspective
       id="perspective2824"
       inkscape:persp3d-origin="24 : 16 : 1"
       inkscape:vp_z="48 : 24 : 1"
       inkscape:vp_y="0 : 1000 : 0"
       inkscape:vp_x="0 : 24 : 1"
       sodipodi:type="inkscape:persp3d" />
    <linearGradient
       gradientUnits="userSpaceOnUse"
       y2="23.857143"
       x2="38.857143"
       y1="23.857143"
       x1="8.8571434"
       id="linearGradient3614"
       xlink:href="#linearGradient3608"
       inkscape:collect="always" />
    <linearGradient
       y2="34.690475"
       x2="23.857143"
       y1="12.904762"
       x1="23.857143"
       gradientUnits="userSpaceOnUse"
       id="linearGradient3666"
       xlink:href="#linearGradient3608"
       inkscape:collect="always"
       gradientTransform="matrix(-1.2,0,0,1.2,52.628572,-4.6285721)" />
    <filter
       id="filter5839"
       inkscape:label="Inner Shadow"
       inkscape:menu="Shadows and Glows"
       inkscape:menu-tooltip="Adds a colorizable drop shadow inside"
       color-interpolation-filters="sRGB">
      <feGaussianBlur
         id="feGaussianBlur5841"
         stdDeviation="1"
         result="result8" />
      <feOffset
         id="feOffset5843"
         dx="0"
         dy="1"
         result="result11" />
      <feComposite
         id="feComposite5845"
         in2="result11"
         result="result6"
         in="SourceGraphic"
         operator="in" />
      <feFlood
         id="feFlood5847"
         result="result10"
         in="result6"
         flood-opacity="0.77852348993288589"
         flood-color="rgb(0,0,0)" />
      <feBlend
         id="feBlend5849"
         in2="result10"
         mode="normal"
         in="result6"
         result="result12" />
      <feComposite
         id="feComposite5851"
         in2="SourceGraphic"
         result="result2"
         operator="in" />
    </filter>
    <filter
       inkscape:collect="always"
       id="filter5877"
       x="-0.10116279"
       width="1.2023256"
       y="-0.10116279"
       height="1.2023256">
      <feGaussianBlur
         inkscape:collect="always"
         stdDeviation="1.5174419"
         id="feGaussianBlur5879" />
    </filter>
  </defs>
  <metadata
     id="metadata2821">
    <rdf:RDF>
      <cc:Work
         rdf:about="">
        <dc:format>image/svg+xml</dc:format>
        <dc:type
           rdf:resource="http://purl.org/dc/dcmitype/StillImage" />
        <dc:title></dc:title>
      </cc:Work>
    </rdf:RDF>
  </metadata>
  <g
     inkscape:groupmode="layer"
     inkscape:label="Layer 1"
     id="layer1">
    <path
       id="path3624"
       d="M 24 6 C 14.058875 6 6 14.058875 6 24 C 6 33.941125 14.058875 42 24 42 C 33.941125 42 42 33.941125 42 24 C 42 14.058875 33.941125 6 24 6 z M 16.65625 12.84375 L 31.46875 12.84375 C 32.268025 12.84375 32.90625 13.480214 32.90625 14.28125 L 32.90625 33.96875 C 32.90625 34.769786 32.268025 35.40625 31.46875 35.40625 L 16.65625 35.40625 C 15.856975 35.40625 15.1875 34.769786 15.1875 33.96875 L 15.1875 14.28125 C 15.1875 13.480214 15.856975 12.84375 16.65625 12.84375 z M 18.53125 14.84375 C 17.731975 14.84375 17.09375 15.358536 17.09375 16.03125 C 17.09375 16.703964 17.731975 17.25 18.53125 17.25 L 29.59375 17.25 C 30.393025 17.25 31.03125 16.703964 31.03125 16.03125 C 31.03125 15.358536 30.393025 14.84375 29.59375 14.84375 L 18.53125 14.84375 z M 18.53125 18.90625 C 17.731975 18.90625 17.09375 19.452286 17.09375 20.125 C 17.09375 20.797714 17.731975 21.34375 18.53125 21.34375 L 29.59375 21.34375 C 30.393025 21.34375 31.03125 20.797714 31.03125 20.125 C 31.03125 19.452286 30.393025 18.90625 29.59375 18.90625 L 18.53125 18.90625 z M 18.53125 23 C 17.731975 23 17.09375 23.546036 17.09375 24.21875 C 17.09375 24.891464 17.731975 25.4375 18.53125 25.4375 L 29.59375 25.4375 C 30.393025 25.4375 31.03125 24.891464 31.03125 24.21875 C 31.03125 23.546036 30.393025 23 29.59375 23 L 18.53125 23 z M 18.53125 27.09375 C 17.731975 27.09375 17.09375 27.639786 17.09375 28.3125 C 17.09375 28.985214 17.731975 29.53125 18.53125 29.53125 L 29.59375 29.53125 C 30.393025 29.53125 31.03125 28.985214 31.03125 28.3125 C 31.03125 27.639786 30.393025 27.09375 29.59375 27.09375 L 18.53125 27.09375 z M 18.53125 31.03125 C 17.731975 31.03125 17.09375 31.577286 17.09375 32.25 C 17.09375 32.922714 17.731975 33.46875 18.53125 33.46875 L 29.59375 33.46875 C 30.393025 33.46875 31.03125 32.922714 31.03125 32.25 C 31.03125 31.577286 30.393025 31.03125 29.59375 31.03125 L 18.53125 31.03125 z "
       style="fill:#ffffff;fill-opacity:1;stroke:#ffffff;filter:url(#filter5877);stroke-opacity:1;opacity:0.8875" />
    <path
       style="fill:url(#linearGradient3666);fill-opacity:1;stroke:none;filter:url(#filter5839)"
       d="M 24 6 C 14.058875 6 6 14.058875 6 24 C 6 33.941125 14.058875 42 24 42 C 33.941125 42 42 33.941125 42 24 C 42 14.058875 33.941125 6 24 6 z M 16.65625 12.84375 L 31.46875 12.84375 C 32.268025 12.84375 32.90625 13.480214 32.90625 14.28125 L 32.90625 33.96875 C 32.90625 34.769786 32.268025 35.40625 31.46875 35.40625 L 16.65625 35.40625 C 15.856975 35.40625 15.1875 34.769786 15.1875 33.96875 L 15.1875 14.28125 C 15.1875 13.480214 15.856975 12.84375 16.65625 12.84375 z M 18.53125 14.84375 C 17.731975 14.84375 17.09375 15.358536 17.09375 16.03125 C 17.09375 16.703964 17.731975 17.25 18.53125 17.25 L 29.59375 17.25 C 30.393025 17.25 31.03125 16.703964 31.03125 16.03125 C 31.03125 15.358536 30.393025 14.84375 29.59375 14.84375 L 18.53125 14.84375 z M 18.53125 18.90625 C 17.731975 18.90625 17.09375 19.452286 17.09375 20.125 C 17.09375 20.797714 17.731975 21.34375 18.53125 21.34375 L 29.59375 21.34375 C 30.393025 21.34375 31.03125 20.797714 31.03125 20.125 C 31.03125 19.452286 30.393025 18.90625 29.59375 18.90625 L 18.53125 18.90625 z M 18.53125 23 C 17.731975 23 17.09375 23.546036 17.09375 24.21875 C 17.09375 24.891464 17.731975 25.4375 18.53125 25.4375 L 29.59375 25.4375 C 30.393025 25.4375 31.03125 24.891464 31.03125 24.21875 C 31.03125 23.546036 30.393025 23 29.59375 23 L 18.53125 23 z M 18.53125 27.09375 C 17.731975 27.09375 17.09375 27.639786 17.09375 28.3125 C 17.09375 28.985214 17.731975 29.53125 18.53125 29.53125 L 29.59375 29.53125 C 30.393025 29.53125 31.03125 28.985214 31.03125 28.3125 C 31.03125 27.639786 30.393025 27.09375 29.59375 27.09375 L 18.53125 27.09375 z M 18.53125 31.03125 C 17.731975 31.03125 17.09375 31.577286 17.09375 32.25 C 17.09375 32.922714 17.731975 33.46875 18.53125 33.46875 L 29.59375 33.46875 C 30.393025 33.46875 31.03125 32.922714 31.03125 32.25 C 31.03125 31.577286 30.393025 31.03125 29.59375 31.03125 L 18.53125 31.03125 z "
       id="path2834" />
  </g>
</svg>
