<?xml version="1.0" encoding="UTF-8" standalone="no"?>
<!-- Created with Inkscape (http://www.inkscape.org/) -->

<svg
   xmlns:dc="http://purl.org/dc/elements/1.1/"
   xmlns:cc="http://creativecommons.org/ns#"
   xmlns:rdf="http://www.w3.org/1999/02/22-rdf-syntax-ns#"
   xmlns:svg="http://www.w3.org/2000/svg"
   xmlns="http://www.w3.org/2000/svg"
   xmlns:xlink="http://www.w3.org/1999/xlink"
   xmlns:sodipodi="http://sodipodi.sourceforge.net/DTD/sodipodi-0.dtd"
   xmlns:inkscape="http://www.inkscape.org/namespaces/inkscape"
   width="32px"
   height="32px"
   id="svg4580"
   version="1.1"
   inkscape:version="0.47pre4 r22446"
   sodipodi:docname="overlay_info.svg"
   inkscape:export-filename="/home/lukacu/workspace/webstrips-android/res/drawable/overlay_info.png"
   inkscape:export-xdpi="90"
   inkscape:export-ydpi="90">
  <defs
     id="defs4582">
    <linearGradient
       id="linearGradient5126">
      <stop
         style="stop-color:#797979;stop-opacity:1;"
         offset="0"
         id="stop5128" />
      <stop
         style="stop-color:#d5d5d5;stop-opacity:1;"
         offset="1"
         id="stop5130" />
    </linearGradient>
    <inkscape:perspective
       sodipodi:type="inkscape:persp3d"
       inkscape:vp_x="0 : 16 : 1"
       inkscape:vp_y="0 : 1000 : 0"
       inkscape:vp_z="32 : 16 : 1"
       inkscape:persp3d-origin="16 : 10.666667 : 1"
       id="perspective4588" />
    <inkscape:perspective
       id="perspective4600"
       inkscape:persp3d-origin="0.5 : 0.33333333 : 1"
       inkscape:vp_z="1 : 0.5 : 1"
       inkscape:vp_y="0 : 1000 : 0"
       inkscape:vp_x="0 : 0.5 : 1"
       sodipodi:type="inkscape:persp3d" />
    <linearGradient
       inkscape:collect="always"
       xlink:href="#linearGradient5126"
       id="linearGradient5132"
       x1="24.201178"
       y1="27.802748"
       x2="12.859667"
       y2="5.9234533"
       gradientUnits="userSpaceOnUse" />
    <filter
       inkscape:collect="always"
       id="filter5136"
       x="-0.15184007"
       width="1.3036801"
       y="-0.11798225"
       height="1.2359645">
      <feGaussianBlur
         inkscape:collect="always"
         stdDeviation="1.0190435"
         id="feGaussianBlur5138" />
    </filter>
    <filter
       inkscape:collect="always"
       id="filter5142">
      <feGaussianBlur
         inkscape:collect="always"
         stdDeviation="0.589255"
         id="feGaussianBlur5144" />
    </filter>
    <filter
       inkscape:collect="always"
       id="filter5809"
       x="-0.2309747"
       width="1.4619494"
       y="-0.098093734"
       height="1.1961875">
      <feGaussianBlur
         inkscape:collect="always"
         stdDeviation="1.9278689"
         id="feGaussianBlur5811" />
    </filter>
  </defs>
  <sodipodi:namedview
     id="base"
     pagecolor="#ffffff"
     bordercolor="#666666"
     borderopacity="1.0"
     inkscape:pageopacity="0.0"
     inkscape:pageshadow="2"
     inkscape:zoom="11.197802"
     inkscape:cx="33.056919"
     inkscape:cy="27.18415"
     inkscape:current-layer="layer1"
     showgrid="true"
     inkscape:grid-bbox="true"
     inkscape:document-units="px"
     inkscape:window-width="1348"
     inkscape:window-height="917"
     inkscape:window-x="254"
     inkscape:window-y="138"
     inkscape:window-maximized="0" />
  <metadata
     id="metadata4585">
    <rdf:RDF>
      <cc:Work
         rdf:about="">
        <dc:format>image/svg+xml</dc:format>
        <dc:type
           rdf:resource="http://purl.org/dc/dcmitype/StillImage" />
        <dc:title></dc:title>
      </cc:Work>
    </rdf:RDF>
  </metadata>
  <g
     id="layer1"
     inkscape:label="Layer 1"
     inkscape:groupmode="layer">
    <path
       transform="matrix(1,0,0,1.0028275,-1.2502454,-0.09069038)"
       d="m 31.702651,16.282629 a 14.377822,14.377822 0 1 1 -28.7556438,0 14.377822,14.377822 0 1 1 28.7556438,0 z"
       sodipodi:ry="14.377822"
       sodipodi:rx="14.377822"
       sodipodi:cy="16.282629"
       sodipodi:cx="17.324829"
       id="path5140"
       style="fill:#000000;fill-opacity:1;stroke:none;filter:url(#filter5142)"
       sodipodi:type="arc" />
    <path
       sodipodi:type="arc"
       style="fill:url(#linearGradient5132);fill-opacity:1;stroke:none"
       id="path5124"
       sodipodi:cx="17.324829"
       sodipodi:cy="16.282629"
       sodipodi:rx="14.377822"
       sodipodi:ry="14.377822"
       d="m 31.702651,16.282629 a 14.377822,14.377822 0 1 1 -28.7556438,0 14.377822,14.377822 0 1 1 28.7556438,0 z"
       transform="translate(-1.2502454,-0.62512268)" />
    <g
       style="font-size:64px;font-style:normal;font-variant:normal;font-weight:bold;font-stretch:normal;text-align:start;line-height:125%;writing-mode:lr-tb;text-anchor:start;fill:#5fbdff;fill-opacity:1;stroke:none;font-family:Century Schoolbook L;-inkscape-font-specification:Century Schoolbook L Medium"
       id="text5268"
       transform="matrix(0.41601028,0,0,0.41601028,14.162013,16.429976)">
      <path
         d="m 9.777044,-9.2562987 -15.04,0.448 0,3.264 0.896,0 c 3.90399614,0 4.09600004,0.3200057 4.09600004,6.01599999 l 0,11.32799971 0,2.944 c 0,2.559998 -0.70400403,3.008 -4.73600004,3.008 l -0.256,0 0,3.264 20.032,0 0,-3.264 -0.384,0 c -3.903996,0 -4.608,-0.448002 -4.608,-2.944 l 0,-3.008 0,-21.0559997 m -5.184,-16.8960003 c -3.1359968,0 -5.696,2.560003 -5.696,5.632 0,3.071997 2.560003,5.696 5.568,5.696 3.1999968,0 5.76,-2.496003 5.76,-5.696 0,-3.071997 -2.560003,-5.632 -5.632,-5.632"
         id="path5273"
         style="fill:#5fbdff;fill-opacity:1" />
    </g>
    <g
       transform="matrix(0.41601028,0,0,0.41601028,14.162013,16.429976)"
       id="g5785"
       style="font-size:64px;font-style:normal;font-variant:normal;font-weight:bold;font-stretch:normal;text-align:start;line-height:125%;writing-mode:lr-tb;text-anchor:start;fill:#5fbdff;fill-opacity:1;stroke:none;font-family:Century Schoolbook L;-inkscape-font-specification:Century Schoolbook L Medium;filter:url(#filter5809)">
      <path
         style="fill:#5fbdff;fill-opacity:1"
         id="path5787"
         d="m 9.777044,-9.2562987 -15.04,0.448 0,3.264 0.896,0 c 3.90399614,0 4.09600004,0.3200057 4.09600004,6.01599999 l 0,11.32799971 0,2.944 c 0,2.559998 -0.70400403,3.008 -4.73600004,3.008 l -0.256,0 0,3.264 20.032,0 0,-3.264 -0.384,0 c -3.903996,0 -4.608,-0.448002 -4.608,-2.944 l 0,-3.008 0,-21.0559997 m -5.184,-16.8960003 c -3.1359968,0 -5.696,2.560003 -5.696,5.632 0,3.071997 2.560003,5.696 5.568,5.696 3.1999968,0 5.76,-2.496003 5.76,-5.696 0,-3.071997 -2.560003,-5.632 -5.632,-5.632" />
    </g>
  </g>
</svg>
